# xmcd
#
# Track frame offsets:
#	150
#	1993
#	18813
#	40085
#	58256
#	78047
#	98112
#	108172
#	125823
#	146827
#	164754
#	179626
#	199852
#
# Disc length: 3097 seconds
#
# Revision: 2
# Processed by: cddbd v1.5.2PL0 Copyright (c) Steve Scherf et al.
# Submitted via: EZCDAudioConverter 2.8.1.1
#
DISCID=af0c170d
DTITLE=Lucia(심규선) with Epitone Project  - 자기만의 방 
DYEAR=2011
DGENRE=Ballad
TTITLE0=첫 번째, 방 
TTITLE1=꽃처럼 한 철만 사랑해 줄 건가요? 
TTITLE2=부디(Album ver.) 
TTITLE3=고양이왈츠 
TTITLE4=안녕, 안녕 
TTITLE5=Sue(Inspired by ‘Fingersmith’) 
TTITLE6=두 번째, 방 
TTITLE7=어떤 날도, 어떤 말도 
TTITLE8=버라이어티 
TTITLE9=고양이왈츠 Acoustic 
TTITLE10=어른이 되는 레시피 
TTITLE11=웃음 
TTITLE12=자기만의 방 
EXTD=
EXTT0=
EXTT1=
EXTT2=
EXTT3=
EXTT4=
EXTT5=
EXTT6=
EXTT7=
EXTT8=
EXTT9=
EXTT10=
EXTT11=
EXTT12=
PLAYORDER=
